<?xml version="1.0" standalone="no"?>
<!DOCTYPE svg PUBLIC "-//W3C//DTD SVG 20010904//EN"
 "http://www.w3.org/TR/2001/REC-SVG-20010904/DTD/svg10.dtd">
<svg version="1.0" xmlns="http://www.w3.org/2000/svg"
 width="512.000000pt" height="512.000000pt" viewBox="0 0 512.000000 512.000000"
 preserveAspectRatio="xMidYMid meet">

<g transform="translate(0.000000,512.000000) scale(0.100000,-0.100000)"
fill="#000000" stroke="none">
<path d="M3743 4559 c-394 -83 -867 -398 -1298 -867 -70 -75 -131 -138 -136
-140 -5 -2 -9 2 -9 10 0 29 -74 167 -127 236 -104 137 -259 236 -439 282
l-102 25 -70 91 c-236 306 -565 418 -906 310 l-71 -22 -45 23 c-53 27 -161 31
-214 9 -47 -20 -113 -82 -139 -130 -30 -58 -30 -174 0 -232 26 -48 92 -110
139 -130 45 -19 155 -18 202 1 47 20 107 78 135 130 17 31 22 57 22 118 l-1
78 50 14 c207 62 438 -1 607 -165 43 -41 80 -81 81 -88 2 -9 -22 -20 -72 -33
-224 -57 -418 -215 -519 -422 -55 -110 -72 -181 -78 -313 -18 -377 213 -700
577 -805 l78 -22 7 -71 c68 -729 696 -1422 1436 -1588 87 -19 131 -23 269 -22
171 0 254 15 390 69 l45 17 361 -226 c395 -247 410 -254 453 -200 12 15 21 36
21 48 0 11 -104 186 -231 388 l-230 368 27 67 c50 126 67 239 61 408 -6 161
-21 248 -68 390 -60 182 -190 417 -312 567 -26 32 -47 60 -47 62 0 2 71 2 158
-1 500 -18 925 149 1114 436 164 251 119 566 -130 915 -161 225 -375 373 -604
420 -104 22 -270 19 -385 -5z m-3248 -213 c28 -29 40 -66 31 -102 -25 -100
-177 -100 -202 0 -9 36 3 73 31 102 18 18 35 24 70 24 35 0 52 -6 70 -24z
m1207 -422 c177 -44 322 -159 407 -324 57 -109 75 -196 69 -327 -8 -169 -65
-297 -184 -417 -73 -72 -145 -118 -246 -154 -65 -23 -88 -26 -203 -26 -115 0
-138 3 -203 26 -197 71 -344 221 -405 413 -18 57 -22 93 -22 195 0 139 11 184
72 302 130 251 431 382 715 312z m1277 -835 c31 -18 95 -58 143 -91 83 -57 87
-62 94 -103 9 -63 -12 -257 -41 -370 -72 -284 -263 -553 -510 -717 -186 -124
-366 -187 -593 -208 l-107 -10 -28 33 c-58 66 -187 257 -187 278 0 3 19 9 43
13 69 11 234 65 325 107 270 124 522 370 659 642 46 92 108 282 124 380 7 42
15 77 18 77 2 0 29 -14 60 -31z m878 -1310 c4 -105 2 -155 -11 -219 -63 -309
-274 -510 -589 -560 -80 -13 -267 -9 -337 8 l-35 8 40 14 c79 25 223 98 310
155 109 72 266 222 351 335 78 103 170 282 209 409 l30 95 13 -55 c7 -30 16
-115 19 -190z"/>
<path d="M1259 3561 c-28 -29 -29 -33 -29 -126 0 -94 1 -97 30 -127 26 -25 36
-29 63 -24 56 11 67 35 67 153 0 97 -2 106 -25 128 -33 33 -70 32 -106 -4z"/>
</g>
</svg>
