<?xml version="1.0" standalone="no"?>
<!DOCTYPE svg PUBLIC "-//W3C//DTD SVG 20010904//EN"
 "http://www.w3.org/TR/2001/REC-SVG-20010904/DTD/svg10.dtd">
<svg version="1.0" xmlns="http://www.w3.org/2000/svg"
 width="512.000000pt" height="512.000000pt" viewBox="0 0 512.000000 512.000000"
 preserveAspectRatio="xMidYMid meet">

<g transform="translate(0.000000,512.000000) scale(0.100000,-0.100000)"
fill="#000000" stroke="none">
<path d="M1300 4953 c-189 -21 -408 -101 -565 -206 -83 -56 -108 -77 -203
-170 -172 -169 -293 -394 -348 -647 -18 -81 -19 -153 -19 -1370 0 -1217 1
-1289 19 -1370 113 -515 491 -893 1006 -1006 81 -18 153 -19 1370 -19 1217 0
1289 1 1370 19 515 113 893 491 1006 1006 18 78 19 138 19 757 0 663 0 672
-21 699 -39 53 -71 69 -134 69 -63 0 -95 -16 -134 -69 -21 -27 -21 -40 -24
-557 l-3 -531 -43 59 c-129 175 -331 302 -551 348 -105 22 -285 22 -390 0
-237 -50 -439 -182 -578 -377 -11 -16 -37 12 -235 247 -123 145 -252 291 -288
324 -392 367 -1006 394 -1439 64 -135 -104 -204 -191 -416 -532 -105 -168
-197 -313 -205 -321 -22 -22 -21 2349 1 2473 65 372 335 664 714 770 73 20
101 21 743 27 653 5 667 5 694 26 53 39 69 71 69 134 0 63 -16 95 -69 134 -27
21 -37 21 -669 22 -353 1 -658 -1 -677 -3z m700 -2845 c95 -24 218 -85 296
-148 41 -32 266 -290 663 -759 330 -391 601 -713 601 -716 0 -3 -512 -4 -1137
-2 -1133 3 -1138 3 -1215 25 -162 45 -299 120 -413 225 -76 70 -175 192 -175
216 0 19 515 840 565 901 126 154 342 265 550 283 68 6 186 -5 265 -25z m2025
-470 c106 -30 182 -75 261 -153 62 -62 80 -89 151 -230 45 -88 88 -177 96
-197 l15 -37 -49 -79 c-104 -169 -275 -315 -455 -389 -72 -29 -88 -33 -99 -21
-39 41 -648 765 -652 776 -9 22 59 122 127 185 164 155 386 208 605 145z"/>
<path d="M3855 4946 c-37 -17 -70 -52 -84 -89 -7 -18 -11 -162 -11 -402 l0
-374 -389 -3 c-376 -3 -391 -4 -417 -24 -53 -39 -69 -71 -69 -134 0 -63 16
-95 69 -134 26 -20 41 -21 416 -24 l389 -3 3 -389 c3 -375 4 -390 24 -416 39
-53 71 -69 134 -69 63 0 95 16 134 69 20 26 21 41 24 416 l3 389 389 3 c375 3
390 4 416 24 53 39 69 71 69 134 0 63 -16 95 -69 134 -26 20 -41 21 -416 24
l-389 3 -3 389 c-3 375 -4 390 -24 416 -11 15 -32 37 -46 47 -34 25 -113 32
-153 13z"/>
</g>
</svg>
